<?xml version="1.0" standalone="no"?>
<!DOCTYPE svg PUBLIC "-//W3C//DTD SVG 20010904//EN"
 "http://www.w3.org/TR/2001/REC-SVG-20010904/DTD/svg10.dtd">
<svg version="1.0" xmlns="http://www.w3.org/2000/svg"
 width="697.000000pt" height="697.000000pt" viewBox="0 0 697.000000 697.000000"
 preserveAspectRatio="xMidYMid meet">
<metadata>
Created by potrace 1.14, written by Peter Selinger 2001-2017
</metadata>
<g transform="translate(0.000000,697.000000) scale(0.100000,-0.100000)"
fill="#000000" stroke="none">
<path d="M3300 6402 c-283 -16 -612 -156 -895 -381 -294 -233 -550 -556 -751
-946 -95 -184 -187 -438 -208 -575 -25 -161 -34 -193 -60 -216 -14 -14 -26
-28 -27 -32 0 -4 -3 -19 -5 -33 -5 -28 36 -89 60 -89 9 0 594 -362 642 -397 5
-4 19 -13 30 -20 10 -6 82 -51 158 -100 77 -48 154 -97 172 -108 18 -11 72
-45 119 -75 48 -30 99 -62 114 -71 257 -158 610 -389 595 -390 -10 0 -26 -2
-35 -4 -8 -1 -41 -6 -71 -9 -66 -8 -200 -44 -278 -76 -183 -73 -379 -218 -492
-363 -18 -23 -35 -44 -38 -47 -4 -3 -27 -39 -53 -80 -133 -216 -195 -452 -184
-704 10 -239 75 -437 206 -633 228 -340 603 -544 1006 -547 184 -1 281 14 438
71 175 63 315 151 447 283 104 103 121 124 180 220 95 152 150 301 179 485 10
59 8 301 -2 360 -45 257 -151 472 -326 658 -69 73 -192 177 -210 177 -6 0 -11
3 -11 8 0 8 -2 8 -135 76 -49 25 -95 46 -102 46 -25 0 -13 17 20 27 35 12 450
169 482 182 11 5 47 19 80 31 33 12 79 31 102 41 24 11 46 19 50 19 7 0 311
114 348 131 11 5 49 19 85 32 150 55 316 118 335 127 11 5 58 24 105 41 47 17
112 42 145 54 241 92 248 94 289 89 32 -5 47 -1 68 15 32 26 45 79 27 112 -8
16 -13 92 -14 249 -1 124 -5 236 -8 250 -3 14 -8 45 -11 70 -6 44 -11 71 -21
120 -3 14 -7 35 -10 47 -10 53 -57 217 -95 328 -140 410 -348 754 -615 1020
-363 361 -778 506 -1176 410 l-66 -17 -70 35 c-136 69 -344 109 -513 99z m430
-1771 c238 -34 396 -86 540 -179 87 -56 220 -159 220 -171 -1 -5 -28 -41 -180
-231 -15 -19 -51 -64 -79 -100 -28 -36 -54 -69 -59 -75 -4 -5 -135 -172 -291
-370 -156 -198 -295 -375 -309 -392 -14 -18 -28 -33 -32 -33 -3 0 -30 51 -60
113 -29 61 -103 213 -163 337 -60 124 -138 286 -174 360 -36 74 -107 221 -158
327 -52 106 -96 200 -99 210 -5 15 15 30 113 81 141 74 232 109 321 126 78 15
292 13 410 -3z m-1297 -37 c94 -18 162 -43 235 -87 42 -25 59 -43 77 -82 13
-27 67 -140 120 -250 54 -110 123 -254 155 -320 111 -231 193 -402 301 -624
60 -123 108 -226 105 -228 -2 -2 -86 48 -187 110 -101 63 -346 214 -544 337
-198 122 -400 248 -450 279 -49 31 -98 61 -107 66 -10 6 -151 92 -313 193
l-295 184 0 40 c0 30 -7 46 -28 67 l-28 28 26 22 c247 213 632 322 933 265z
m2597 -233 c208 -36 441 -160 626 -334 88 -82 163 -179 144 -185 -22 -8 -70
-58 -70 -74 0 -7 -39 -27 -93 -46 -50 -18 -101 -37 -112 -42 -11 -4 -81 -31
-155 -58 -402 -150 -662 -246 -800 -297 -85 -31 -169 -63 -187 -71 -17 -8 -34
-14 -38 -14 -5 0 -76 -26 -425 -157 -157 -59 -283 -103 -286 -100 -2 2 15 25
37 53 22 27 46 56 52 64 7 8 77 98 157 200 160 204 161 206 175 223 12 15 249
317 319 407 28 36 53 67 56 70 3 3 28 34 55 70 28 36 52 67 55 70 3 3 18 23
35 45 16 22 35 46 42 53 7 7 26 33 44 57 38 53 45 57 129 70 25 4 46 8 48 9 5
6 131 -3 192 -13z"/>
</g>
</svg>
